# Blender 3.4.1
# www.blender.org
mtllib dot.mtl
o Circle
v 0.000000 0.000000 -1.000000
v -0.195090 0.000000 -0.980785
v -0.382683 0.000000 -0.923880
v -0.555570 0.000000 -0.831470
v -0.707107 0.000000 -0.707107
v -0.831470 0.000000 -0.555570
v -0.923880 0.000000 -0.382683
v -0.980785 0.000000 -0.195090
v -1.000000 0.000000 0.000000
v -0.980785 -0.000000 0.195090
v -0.923880 -0.000000 0.382683
v -0.831470 -0.000000 0.555570
v -0.707107 -0.000000 0.707107
v -0.555570 -0.000000 0.831470
v -0.382683 -0.000000 0.923880
v -0.195090 -0.000000 0.980785
v 0.000000 -0.000000 1.000000
v 0.195090 -0.000000 0.980785
v 0.382683 -0.000000 0.923880
v 0.555570 -0.000000 0.831470
v 0.707107 -0.000000 0.707107
v 0.831470 -0.000000 0.555570
v 0.923880 -0.000000 0.382683
v 0.980785 -0.000000 0.195090
v 1.000000 0.000000 0.000000
v 0.980785 0.000000 -0.195090
v 0.923880 0.000000 -0.382683
v 0.831470 0.000000 -0.555570
v 0.707107 0.000000 -0.707107
v 0.555570 0.000000 -0.831470
v 0.382683 0.000000 -0.923880
v 0.195090 0.000000 -0.980785
v 0.000000 0.271253 -1.000000
v -0.195090 0.271253 -0.980785
v -0.382683 0.271253 -0.923880
v -0.555570 0.271253 -0.831470
v -0.707107 0.271253 -0.707107
v -0.831470 0.271253 -0.555570
v -0.923880 0.271253 -0.382683
v -0.980785 0.271253 -0.195090
v -1.000000 0.271253 0.000000
v -0.980785 0.271253 0.195090
v -0.923880 0.271253 0.382683
v -0.831470 0.271253 0.555570
v -0.707107 0.271252 0.707107
v -0.555570 0.271252 0.831470
v -0.382683 0.271252 0.923880
v -0.195090 0.271252 0.980785
v 0.000000 0.271252 1.000000
v 0.195090 0.271252 0.980785
v 0.382683 0.271252 0.923880
v 0.555570 0.271252 0.831470
v 0.707107 0.271252 0.707107
v 0.831470 0.271253 0.555570
v 0.923880 0.271253 0.382683
v 0.980785 0.271253 0.195090
v 1.000000 0.271253 0.000000
v 0.980785 0.271253 -0.195090
v 0.923880 0.271253 -0.382683
v 0.831470 0.271253 -0.555570
v 0.707107 0.271253 -0.707107
v 0.555570 0.271253 -0.831470
v 0.382683 0.271253 -0.923880
v 0.195090 0.271253 -0.980785
vn -0.0000 -1.0000 -0.0000
vn -0.0000 1.0000 -0.0000
vn 0.9569 -0.0000 -0.2903
vn 0.7730 -0.0000 0.6344
vn 0.8819 -0.0000 -0.4714
vn -0.0980 -0.0000 0.9952
vn 0.9952 -0.0000 -0.0980
vn -0.0980 -0.0000 -0.9952
vn 0.6344 -0.0000 -0.7730
vn -0.2903 -0.0000 0.9569
vn 0.0980 -0.0000 -0.9952
vn -0.2903 -0.0000 -0.9569
vn -0.4714 -0.0000 -0.8819
vn 0.0980 -0.0000 0.9952
vn -0.8819 -0.0000 -0.4714
vn 0.2903 -0.0000 -0.9569
vn 0.9952 -0.0000 0.0980
vn 0.2903 -0.0000 0.9569
vn -0.7730 -0.0000 -0.6344
vn -0.6344 -0.0000 0.7730
vn 0.4714 -0.0000 0.8819
vn 0.9569 -0.0000 0.2903
vn 0.6344 -0.0000 0.7730
vn -0.9569 -0.0000 -0.2903
vn 0.4714 -0.0000 -0.8819
vn -0.7730 -0.0000 0.6344
vn -0.9952 -0.0000 -0.0980
vn -0.9952 -0.0000 0.0980
vn 0.8819 -0.0000 0.4714
vn -0.9569 -0.0000 0.2903
vn -0.6344 -0.0000 -0.7730
vn 0.7730 -0.0000 -0.6344
vn -0.8819 -0.0000 0.4714
vn -0.4714 -0.0000 0.8819
vt 0.000000 0.000000
vt 0.000000 0.000000
vt 0.000000 0.000000
vt 0.000000 0.000000
vt 0.000000 0.000000
vt 0.000000 0.000000
vt 0.000000 0.000000
vt 0.000000 0.000000
vt 0.000000 0.000000
vt 0.000000 0.000000
vt 0.000000 0.000000
vt 0.000000 0.000000
vt 0.000000 0.000000
vt 0.000000 0.000000
vt 0.000000 0.000000
vt 0.000000 0.000000
vt 0.000000 0.000000
vt 0.000000 0.000000
vt 0.000000 0.000000
vt 0.000000 0.000000
vt 0.000000 0.000000
vt 0.000000 0.000000
vt 0.000000 0.000000
vt 0.000000 0.000000
vt 0.000000 0.000000
vt 0.000000 0.000000
vt 0.000000 0.000000
vt 0.000000 0.000000
vt 0.000000 0.000000
vt 0.000000 0.000000
vt 0.000000 0.000000
vt 0.000000 0.000000
vt 0.000000 0.000000
vt 0.000000 0.000000
vt 0.000000 0.000000
vt 0.000000 0.000000
vt 0.000000 0.000000
vt 0.000000 0.000000
vt 0.000000 0.000000
vt 0.000000 0.000000
vt 0.000000 0.000000
vt 0.000000 0.000000
vt 0.000000 0.000000
vt 0.000000 0.000000
vt 0.000000 0.000000
vt 0.000000 0.000000
vt 0.000000 0.000000
vt 0.000000 0.000000
vt 0.000000 0.000000
vt 0.000000 0.000000
vt 0.000000 0.000000
vt 0.000000 0.000000
vt 0.000000 0.000000
vt 0.000000 0.000000
vt 0.000000 0.000000
vt 0.000000 0.000000
vt 0.000000 0.000000
vt 0.000000 0.000000
vt 0.000000 0.000000
vt 0.000000 0.000000
vt 0.000000 0.000000
vt 0.000000 0.000000
vt 0.000000 0.000000
vt 0.000000 0.000000
s 0
f 17/17/1 1/1/1 25/25/1
f 1/1/1 5/5/1 2/2/1
f 2/2/1 5/5/1 3/3/1
f 3/3/1 5/5/1 4/4/1
f 5/5/1 7/7/1 6/6/1
f 7/7/1 5/5/1 8/8/1
f 8/8/1 5/5/1 9/9/1
f 9/9/1 13/13/1 10/10/1
f 10/10/1 13/13/1 11/11/1
f 11/11/1 13/13/1 12/12/1
f 13/13/1 15/15/1 14/14/1
f 15/15/1 13/13/1 16/16/1
f 16/16/1 13/13/1 17/17/1
f 17/17/1 21/21/1 18/18/1
f 18/18/1 21/21/1 19/19/1
f 19/19/1 21/21/1 20/20/1
f 21/21/1 23/23/1 22/22/1
f 23/23/1 21/21/1 24/24/1
f 24/24/1 21/21/1 25/25/1
f 25/25/1 29/29/1 26/26/1
f 26/26/1 29/29/1 27/27/1
f 27/27/1 29/29/1 28/28/1
f 29/29/1 31/31/1 30/30/1
f 31/31/1 29/29/1 32/32/1
f 32/32/1 29/29/1 1/1/1
f 1/1/1 9/9/1 5/5/1
f 9/9/1 17/17/1 13/13/1
f 17/17/1 25/25/1 21/21/1
f 25/25/1 1/1/1 29/29/1
f 1/1/1 17/17/1 9/9/1
f 49/49/2 57/57/2 33/33/2
f 33/33/2 34/34/2 37/37/2
f 34/34/2 35/35/2 37/37/2
f 35/35/2 36/36/2 37/37/2
f 37/37/2 38/38/2 39/39/2
f 39/39/2 40/40/2 37/37/2
f 40/40/2 41/41/2 37/37/2
f 41/41/2 42/42/2 45/45/2
f 42/42/2 43/43/2 45/45/2
f 43/43/2 44/44/2 45/45/2
f 45/45/2 46/46/2 47/47/2
f 47/47/2 48/48/2 45/45/2
f 48/48/2 49/49/2 45/45/2
f 49/49/2 50/50/2 53/53/2
f 50/50/2 51/51/2 53/53/2
f 51/51/2 52/52/2 53/53/2
f 53/53/2 54/54/2 55/55/2
f 55/55/2 56/56/2 53/53/2
f 56/56/2 57/57/2 53/53/2
f 57/57/2 58/58/2 61/61/2
f 58/58/2 59/59/2 61/61/2
f 59/59/2 60/60/2 61/61/2
f 61/61/2 62/62/2 63/63/2
f 63/63/2 64/64/2 61/61/2
f 64/64/2 33/33/2 61/61/2
f 33/33/2 37/37/2 41/41/2
f 41/41/2 45/45/2 49/49/2
f 49/49/2 53/53/2 57/57/2
f 57/57/2 61/61/2 33/33/2
f 33/33/2 41/41/2 49/49/2
f 27/27/3 58/58/3 26/26/3
f 22/22/4 53/53/4 21/21/4
f 28/28/5 59/59/5 27/27/5
f 17/17/6 48/48/6 16/16/6
f 26/26/7 57/57/7 25/25/7
f 2/2/8 33/33/8 1/1/8
f 30/30/9 61/61/9 29/29/9
f 16/16/10 47/47/10 15/15/10
f 1/1/11 64/64/11 32/32/11
f 3/3/12 34/34/12 2/2/12
f 4/4/13 35/35/13 3/3/13
f 18/18/14 49/49/14 17/17/14
f 7/7/15 38/38/15 6/6/15
f 32/32/16 63/63/16 31/31/16
f 25/25/17 56/56/17 24/24/17
f 19/19/18 50/50/18 18/18/18
f 6/6/19 37/37/19 5/5/19
f 14/14/20 45/45/20 13/13/20
f 20/20/21 51/51/21 19/19/21
f 24/24/22 55/55/22 23/23/22
f 21/21/23 52/52/23 20/20/23
f 8/8/24 39/39/24 7/7/24
f 31/31/25 62/62/25 30/30/25
f 13/13/26 44/44/26 12/12/26
f 9/9/27 40/40/27 8/8/27
f 10/10/28 41/41/28 9/9/28
f 23/23/29 54/54/29 22/22/29
f 11/11/30 42/42/30 10/10/30
f 5/5/31 36/36/31 4/4/31
f 29/29/32 60/60/32 28/28/32
f 12/12/33 43/43/33 11/11/33
f 15/15/34 46/46/34 14/14/34
f 27/27/3 59/59/3 58/58/3
f 22/22/4 54/54/4 53/53/4
f 28/28/5 60/60/5 59/59/5
f 17/17/6 49/49/6 48/48/6
f 26/26/7 58/58/7 57/57/7
f 2/2/8 34/34/8 33/33/8
f 30/30/9 62/62/9 61/61/9
f 16/16/10 48/48/10 47/47/10
f 1/1/11 33/33/11 64/64/11
f 3/3/12 35/35/12 34/34/12
f 4/4/13 36/36/13 35/35/13
f 18/18/14 50/50/14 49/49/14
f 7/7/15 39/39/15 38/38/15
f 32/32/16 64/64/16 63/63/16
f 25/25/17 57/57/17 56/56/17
f 19/19/18 51/51/18 50/50/18
f 6/6/19 38/38/19 37/37/19
f 14/14/20 46/46/20 45/45/20
f 20/20/21 52/52/21 51/51/21
f 24/24/22 56/56/22 55/55/22
f 21/21/23 53/53/23 52/52/23
f 8/8/24 40/40/24 39/39/24
f 31/31/25 63/63/25 62/62/25
f 13/13/26 45/45/26 44/44/26
f 9/9/27 41/41/27 40/40/27
f 10/10/28 42/42/28 41/41/28
f 23/23/29 55/55/29 54/54/29
f 11/11/30 43/43/30 42/42/30
f 5/5/31 37/37/31 36/36/31
f 29/29/32 61/61/32 60/60/32
f 12/12/33 44/44/33 43/43/33
f 15/15/34 47/47/34 46/46/34
