<svg id="Ebene_1" data-name="Ebene 1" xmlns="http://www.w3.org/2000/svg" viewBox="0 0 191.68 185.75"><defs><style>.cls-1{fill:#fff;}.cls-2{fill:#3d3d3b;}.cls-3{fill:#ea5555;}.cls-4{fill:#feef6f;}.cls-5{fill:#8bc166;}.cls-6{fill:#151615;}.cls-7{fill:#5768af;}</style></defs><path class="cls-1" d="M525.53,414.76,513,411.53a8.09,8.09,0,0,0-9.85,5.81l-3.24,12.53a8.1,8.1,0,0,0,5.81,9.86L518.26,443a8.08,8.08,0,0,0,9.85-5.81l3.24-12.53A8.1,8.1,0,0,0,525.53,414.76Zm-6.77,13.3a3.23,3.23,0,1,1-2.32-3.95A3.23,3.23,0,0,1,518.76,428.06Z" transform="translate(-370.72 -267.91)"/><path class="cls-2" d="M516.44,424.11a3.24,3.24,0,1,0,2.32,3.95A3.24,3.24,0,0,0,516.44,424.11Z" transform="translate(-370.72 -267.91)"/><path class="cls-1" d="M391.9,330.7a8.08,8.08,0,0,0,9.75,6l12.59-3a8.08,8.08,0,0,0,6-9.75l-3-12.59a8.08,8.08,0,0,0-9.75-6l-12.59,3a8.08,8.08,0,0,0-6,9.75Zm25.54-4.48a3.23,3.23,0,1,1-3.9-2.39A3.23,3.23,0,0,1,417.44,326.22Zm-7.68-18.12a3.23,3.23,0,1,1-2.39,3.9A3.23,3.23,0,0,1,409.76,308.1ZM401.71,330a3.23,3.23,0,1,1-3.9-2.39A3.22,3.22,0,0,1,401.71,330ZM394,311.88a3.23,3.23,0,1,1-2.39,3.9A3.23,3.23,0,0,1,394,311.88Z" transform="translate(-370.72 -267.91)"/><path class="cls-2" d="M411.15,327.73a3.23,3.23,0,1,0,2.39-3.9A3.23,3.23,0,0,0,411.15,327.73Z" transform="translate(-370.72 -267.91)"/><path class="cls-2" d="M411.27,314.39a3.23,3.23,0,1,0-3.9-2.39A3.23,3.23,0,0,0,411.27,314.39Z" transform="translate(-370.72 -267.91)"/><path class="cls-2" d="M395.54,318.17a3.23,3.23,0,1,0-3.9-2.39A3.23,3.23,0,0,0,395.54,318.17Z" transform="translate(-370.72 -267.91)"/><circle class="cls-2" cx="398.57" cy="330.76" r="3.24" transform="translate(-466.21 -92.61) rotate(-22.22)"/><path class="cls-3" d="M505.92,337.2l8.6,13.5a10,10,0,0,0,13.8,3.06l13.5-8.59a10,10,0,0,0,3.06-13.81l-8.59-13.49a10,10,0,0,0-13.8-3.07L509,323.39A10,10,0,0,0,505.92,337.2Zm20.4-20.1a4,4,0,1,1-1.23,5.52A4,4,0,0,1,526.32,317.1Zm-3.06,13.81a4,4,0,1,1-1.23,5.52A4,4,0,0,1,523.26,330.91Zm-3.07,13.8a4,4,0,1,1-1.22,5.53A4,4,0,0,1,520.19,344.71Z" transform="translate(-370.72 -267.91)"/><path class="cls-1" d="M530.62,323.85a4,4,0,1,0-5.53-1.23A4,4,0,0,0,530.62,323.85Z" transform="translate(-370.72 -267.91)"/><path class="cls-1" d="M524.49,351.46a4,4,0,1,0-5.52-1.22A4,4,0,0,0,524.49,351.46Z" transform="translate(-370.72 -267.91)"/><path class="cls-1" d="M527.55,337.65a4,4,0,1,0-5.52-1.22A4,4,0,0,0,527.55,337.65Z" transform="translate(-370.72 -267.91)"/><path class="cls-3" d="M407.36,399l-15.71-3a10,10,0,0,0-11.71,7.93l-3,15.72a10,10,0,0,0,7.94,11.7l15.71,3a10,10,0,0,0,11.71-7.93l3-15.72A10,10,0,0,0,407.36,399Zm-19,24.86a4,4,0,1,1-3.17-4.69A4,4,0,0,1,388.32,423.87ZM400,415.94a4,4,0,1,1-3.17-4.69A4,4,0,0,1,400,415.94ZM411.74,408a4,4,0,1,1-3.17-4.68A4,4,0,0,1,411.74,408Z" transform="translate(-370.72 -267.91)"/><path class="cls-1" d="M408.57,403.32a4,4,0,1,0,3.17,4.68A4,4,0,0,0,408.57,403.32Z" transform="translate(-370.72 -267.91)"/><path class="cls-1" d="M385.15,419.18a4,4,0,1,0,3.17,4.69A4,4,0,0,0,385.15,419.18Z" transform="translate(-370.72 -267.91)"/><path class="cls-1" d="M396.86,411.25a4,4,0,1,0,3.17,4.69A4,4,0,0,0,396.86,411.25Z" transform="translate(-370.72 -267.91)"/><path class="cls-4" d="M429.09,296.86l12.84,1.66a8.09,8.09,0,0,0,9.06-7l1.65-12.83a8.09,8.09,0,0,0-7-9.06L432.81,268a8.08,8.08,0,0,0-9.05,7l-1.66,12.84A8.08,8.08,0,0,0,429.09,296.86Zm14.13-21a3.24,3.24,0,1,1,2.8,3.63A3.23,3.23,0,0,1,443.22,275.84Zm-18.11,14a3.24,3.24,0,1,1,2.79,3.62A3.23,3.23,0,0,1,425.11,289.83Z" transform="translate(-370.72 -267.91)"/><path class="cls-2" d="M446,279.47a3.24,3.24,0,1,0-2.8-3.63A3.25,3.25,0,0,0,446,279.47Z" transform="translate(-370.72 -267.91)"/><path class="cls-2" d="M427.9,293.45a3.24,3.24,0,1,0-2.79-3.62A3.24,3.24,0,0,0,427.9,293.45Z" transform="translate(-370.72 -267.91)"/><path class="cls-4" d="M505.92,386.14l4-12.3a8.1,8.1,0,0,0-5.18-10.2l-12.31-4a8.09,8.09,0,0,0-10.2,5.18l-4,12.31a8.09,8.09,0,0,0,5.18,10.2l12.3,4A8.08,8.08,0,0,0,505.92,386.14Zm-19-4.48a3.24,3.24,0,1,1-2.07-4.08A3.23,3.23,0,0,1,487,381.66Zm5-15.38a3.24,3.24,0,1,1-2.07-4.09A3.24,3.24,0,0,1,492,366.28Zm10.36,20.4a3.24,3.24,0,1,1-2.07-4.08A3.23,3.23,0,0,1,502.34,386.68Zm-1.13-17.39a3.24,3.24,0,1,1,2.07,4.08A3.23,3.23,0,0,1,501.21,369.29Z" transform="translate(-370.72 -267.91)"/><path class="cls-2" d="M500.27,382.6a3.24,3.24,0,1,0,2.07,4.08A3.23,3.23,0,0,0,500.27,382.6Z" transform="translate(-370.72 -267.91)"/><path class="cls-2" d="M507.36,371.3a3.24,3.24,0,1,0-4.08,2.07A3.23,3.23,0,0,0,507.36,371.3Z" transform="translate(-370.72 -267.91)"/><path class="cls-2" d="M489.91,362.19a3.24,3.24,0,1,0,2.07,4.09A3.24,3.24,0,0,0,489.91,362.19Z" transform="translate(-370.72 -267.91)"/><path class="cls-2" d="M484.89,377.58a3.24,3.24,0,1,0,2.07,4.08A3.23,3.23,0,0,0,484.89,377.58Z" transform="translate(-370.72 -267.91)"/><path class="cls-5" d="M384.29,383l12.5-3.37a8.08,8.08,0,0,0,5.7-9.92l-3.37-12.49a8.09,8.09,0,0,0-9.92-5.71l-12.49,3.38a8.08,8.08,0,0,0-5.71,9.91l3.37,12.5A8.09,8.09,0,0,0,384.29,383Zm15.5-10.88a3.24,3.24,0,1,1-4-2.28A3.24,3.24,0,0,1,399.79,372.14Zm-2.11-7.81a3.24,3.24,0,1,1-4-2.28A3.24,3.24,0,0,1,397.68,364.33Zm-6.07-10.09a3.24,3.24,0,1,1-2.28,4A3.24,3.24,0,0,1,391.61,354.24Zm-17.9,8.18a3.24,3.24,0,1,1,4,2.28A3.23,3.23,0,0,1,373.71,362.42Zm2.1,7.81a3.24,3.24,0,1,1,4,2.28A3.24,3.24,0,0,1,375.81,370.23Zm2.11,7.81a3.24,3.24,0,1,1,4,2.28A3.25,3.25,0,0,1,377.92,378Z" transform="translate(-370.72 -267.91)"/><circle class="cls-2" cx="396.67" cy="372.98" r="3.24" transform="translate(-495.13 262.99) rotate(-60.1)"/><path class="cls-2" d="M393.29,360.49a3.24,3.24,0,1,0-4-2.29A3.25,3.25,0,0,0,393.29,360.49Z" transform="translate(-370.72 -267.91)"/><path class="cls-2" d="M377.67,364.7a3.24,3.24,0,1,0-4-2.28A3.24,3.24,0,0,0,377.67,364.7Z" transform="translate(-370.72 -267.91)"/><circle class="cls-2" cx="10.32" cy="109.29" r="3.24"/><circle class="cls-2" cx="394.56" cy="365.17" r="3.24" transform="translate(-489.42 257.24) rotate(-60.1)"/><path class="cls-2" d="M379.78,372.51a3.24,3.24,0,1,0-4-2.28A3.23,3.23,0,0,0,379.78,372.51Z" transform="translate(-370.72 -267.91)"/><path class="cls-6" d="M469.78,308.86a10,10,0,0,0,11.29,8.52l15.84-2.21a10,10,0,0,0,8.53-11.28L503.23,288A10,10,0,0,0,492,279.52l-15.85,2.21A10,10,0,0,0,467.57,293Zm24.7-25.66a4,4,0,1,1-3.41,4.52A4,4,0,0,1,494.48,283.2ZM486,294.49a4,4,0,1,1-3.41,4.51A4,4,0,0,1,486,294.49Zm-8.52,11.28a4,4,0,1,1-3.41,4.51A4,4,0,0,1,477.43,305.77Z" transform="translate(-370.72 -267.91)"/><path class="cls-1" d="M495.58,291.13a4,4,0,1,0-4.51-3.41A4,4,0,0,0,495.58,291.13Z" transform="translate(-370.72 -267.91)"/><path class="cls-1" d="M478.53,313.7a4,4,0,1,0-4.51-3.42A4,4,0,0,0,478.53,313.7Z" transform="translate(-370.72 -267.91)"/><path class="cls-1" d="M487.06,302.41a4,4,0,1,0-4.52-3.41A4,4,0,0,0,487.06,302.41Z" transform="translate(-370.72 -267.91)"/><path class="cls-7" d="M435.2,335.16v16a10,10,0,0,0,10,10h16a10,10,0,0,0,10-10v-16a10,10,0,0,0-10-10h-16A10,10,0,0,0,435.2,335.16Zm28-6a4,4,0,1,1-4,4A4,4,0,0,1,463.2,329.16Zm-10,10a4,4,0,1,1-4,4A4,4,0,0,1,453.2,339.16Zm-6,14a4,4,0,1,1-4-4A4,4,0,0,1,447.2,353.16Z" transform="translate(-370.72 -267.91)"/><circle class="cls-1" cx="92.48" cy="65.25" r="4"/><circle class="cls-1" cx="72.48" cy="85.25" r="4"/><circle class="cls-1" cx="82.48" cy="75.25" r="4"/><path class="cls-6" d="M474.55,421l-14-7.79A10,10,0,0,0,447,417l-7.79,14a10,10,0,0,0,3.87,13.6l14,7.79a10,10,0,0,0,13.6-3.86l7.8-14A10,10,0,0,0,474.55,421Zm-12.26,13.77a4,4,0,1,1-1.54-5.44A4,4,0,0,1,462.29,434.72Z" transform="translate(-370.72 -267.91)"/><circle class="cls-1" cx="458.8" cy="432.78" r="4" transform="translate(-471.53 -126.06) rotate(-15.86)"/><path class="cls-7" d="M557.91,377.67l-13.35-8.82a10,10,0,0,0-13.85,2.83L521.89,385a10,10,0,0,0,2.83,13.86l13.35,8.82a10,10,0,0,0,13.85-2.83l8.82-13.35A10,10,0,0,0,557.91,377.67ZM530.8,393.32a4,4,0,1,1-1.14-5.55A4,4,0,0,1,530.8,393.32Zm4.35-21.1a4,4,0,1,1,1.13,5.54A4,4,0,0,1,535.15,372.22ZM538,386.08a4,4,0,1,1,1.13,5.54A4,4,0,0,1,538,386.08Zm9.5,18.26a4,4,0,1,1-1.13-5.54A4,4,0,0,1,547.48,404.34Zm11-16.69a4,4,0,1,1-1.13-5.54A4,4,0,0,1,558.51,387.65Z" transform="translate(-370.72 -267.91)"/><circle class="cls-1" cx="555.17" cy="385.45" r="4" transform="matrix(0.53, -0.85, 0.85, 0.53, -436.09, 385.34)"/><path class="cls-1" d="M541.82,376.63a4,4,0,1,0-5.54,1.13A4,4,0,0,0,541.82,376.63Z" transform="translate(-370.72 -267.91)"/><circle class="cls-1" cx="527.46" cy="391.11" r="4" transform="translate(-342.22 550.08) rotate(-77.11)"/><path class="cls-1" d="M546.35,398.8a4,4,0,1,0,1.13,5.54A4,4,0,0,0,546.35,398.8Z" transform="translate(-370.72 -267.91)"/><circle class="cls-1" cx="541.31" cy="388.28" r="4" transform="matrix(1, -0.07, 0.07, 1, -396.78, -228.73)"/><path class="cls-5" d="M446.33,396.4l1.3-12.87a8.08,8.08,0,0,0-7.23-8.87l-12.88-1.31a8.09,8.09,0,0,0-8.86,7.24l-1.31,12.87a8.09,8.09,0,0,0,7.24,8.87l12.87,1.31A8.09,8.09,0,0,0,446.33,396.4Zm-8.19-15.46a3.24,3.24,0,1,1,2.89,3.54A3.24,3.24,0,0,1,438.14,380.94Zm-.82,8a3.24,3.24,0,1,1,2.9,3.55A3.24,3.24,0,0,1,437.32,389Zm-10.47,7.07a3.24,3.24,0,1,1-2.89-3.54A3.24,3.24,0,0,1,426.85,396.05Zm.82-8.05a3.24,3.24,0,1,1-2.9-3.54A3.25,3.25,0,0,1,427.67,388Zm.81-8a3.24,3.24,0,1,1-2.89-3.55A3.24,3.24,0,0,1,428.48,380Zm8,17.07a3.24,3.24,0,1,1,2.89,3.55A3.23,3.23,0,0,1,436.51,397Z" transform="translate(-370.72 -267.91)"/><path class="cls-2" d="M443,397.69a3.24,3.24,0,1,0-3.55,2.89A3.24,3.24,0,0,0,443,397.69Z" transform="translate(-370.72 -267.91)"/><circle class="cls-2" cx="70.64" cy="113.35" r="3.24"/><path class="cls-2" d="M425.59,376.41a3.24,3.24,0,1,0,2.89,3.55A3.24,3.24,0,0,0,425.59,376.41Z" transform="translate(-370.72 -267.91)"/><path class="cls-2" d="M424,392.51a3.24,3.24,0,1,0,2.89,3.54A3.24,3.24,0,0,0,424,392.51Z" transform="translate(-370.72 -267.91)"/><path class="cls-2" d="M440.22,392.53a3.24,3.24,0,1,0-2.9-3.55A3.23,3.23,0,0,0,440.22,392.53Z" transform="translate(-370.72 -267.91)"/><path class="cls-2" d="M424.77,384.46a3.24,3.24,0,1,0,2.9,3.54A3.23,3.23,0,0,0,424.77,384.46Z" transform="translate(-370.72 -267.91)"/></svg>