<svg id="Ebene_1" data-name="Ebene 1" xmlns="http://www.w3.org/2000/svg" viewBox="0 0 786.34 919.82"><defs><style>.cls-1{fill:#fff;}</style></defs><path class="cls-1" d="M-364.48,490H-990.64c-44.23,0-80.09,34.23-80.09,76.46V978.83c0,42.23,35.86,76.46,80.09,76.46h626.16c44.23,0,80.09-34.23,80.09-76.46V566.42C-284.39,524.19-320.25,490-364.48,490Zm-9.71,408.94c0,42.23-35.86,76.46-80.09,76.46H-896c-44.23,0-80.09-34.23-80.09-76.46V659.1c0-42.23,35.86-76.46,80.09-76.46h441.71c44.23,0,80.09,34.23,80.09,76.46Z" transform="translate(1070.73 -135.47)"/><path class="cls-1" d="M-851.11,501.55V399.48c0-91.18,77.42-165.09,172.93-165.09h0c95.51,0,172.93,73.91,172.93,165.09V501.55h91V389.19c0-140.12-119-253.72-265.77-253.72h0c-146.78,0-265.77,113.6-265.77,253.72V501.55Z" transform="translate(1070.73 -135.47)"/></svg>