<svg id="Ebene_1" data-name="Ebene 1" xmlns="http://www.w3.org/2000/svg" viewBox="0 0 821.02 808.99"><defs><style>.cls-1{fill:#fff;}</style></defs><path class="cls-1" d="M-459.94-8.53c-146.55,0-265.35,118.8-265.35,265.35s118.8,265.35,265.35,265.35S-194.6,403.37-194.6,256.82-313.4-8.53-459.94-8.53Zm2.42,436.05A167.47,167.47,0,0,1-625,260.06,167.46,167.46,0,0,1-457.52,92.6,167.45,167.45,0,0,1-290.06,260.06,167.46,167.46,0,0,1-457.52,427.52Z" transform="translate(872.42 8.53)"/><path class="cls-1" d="M-270.29,530.51c-106.33,104.61-276.92,104.61-383.25,0-120.78.09-218.7,97.93-218.88,218.72v51.23h110.54c-2.9-11.81-13.52-66.08,27.82-111.24,30.24-33,70.51-41.79,83.26-44.09,23.17,15,89.27,53.69,184.44,55.34,102.83,1.79,174.61-40.78,197.09-55.34,14,2.45,47.71,10.18,74.83,36.58,46.83,45.6,33.12,107.08,30,118.75H-51.4V749.23C-51.59,628.44-149.5,530.6-270.29,530.51Z" transform="translate(872.42 8.53)"/></svg>