<?xml version="1.0" standalone="no"?>
<!DOCTYPE svg PUBLIC "-//W3C//DTD SVG 20010904//EN"
 "http://www.w3.org/TR/2001/REC-SVG-20010904/DTD/svg10.dtd">
<svg version="1.0" xmlns="http://www.w3.org/2000/svg"
 width="512.000000pt" height="512.000000pt" viewBox="0 0 512.000000 512.000000"
 preserveAspectRatio="xMidYMid meet">
<metadata>
Created by potrace 1.14, written by Peter Selinger 2001-2017
</metadata>
<g transform="translate(0.000000,512.000000) scale(0.100000,-0.100000)"
fill="#000000" stroke="none">
<path d="M870 5113 c-451 -73 -779 -390 -856 -828 -20 -113 -20 -3354 0 -3455
52 -263 178 -470 380 -624 115 -88 247 -148 421 -193 17 -4 784 -9 1705 -11
1570 -2 1725 -1 1825 22 175 40 373 153 501 287 128 136 231 340 262 521 4 24
7 808 7 1743 l0 1700 -22 83 c-104 386 -393 662 -777 742 -87 18 -159 19
-1756 18 -916 0 -1676 -2 -1690 -5z"/>
</g>
</svg>
