<svg id="Ebene_1" data-name="Ebene 1" xmlns="http://www.w3.org/2000/svg" viewBox="0 0 50 50.01">
  <defs>
    <style>
      .cls-1 {
        fill: #fff;
      }
    </style>
  </defs>
  <g>
    <path class="cls-1" d="M41.38,33.4a11.52,11.52,0,0,1-10.19,6.13H18.81A11.52,11.52,0,0,1,8.62,33.4,13.32,13.32,0,0,0,0,45.86V50H50V45.86A13.32,13.32,0,0,0,41.38,33.4Z" transform="translate(0 0)"/>
    <path class="cls-1" d="M10.43,26.48v.4a9.47,9.47,0,0,0,9.48,9.48H30.09a9.47,9.47,0,0,0,9.48-9.48v-.4a4.69,4.69,0,0,0,0-9.38v-.4a9.48,9.48,0,0,0-9.48-9.48h-4v-2a2.72,2.72,0,1,0-2.12,0v2h-4a9.48,9.48,0,0,0-9.48,9.48v.4a4.69,4.69,0,0,0,0,9.38Z" transform="translate(0 0)"/>
  </g>
</svg>
