<svg id="Ebene_1" data-name="Ebene 1" xmlns="http://www.w3.org/2000/svg" viewBox="0 0 85.85 127.35">
  <defs>
    <style>
      .cls-1 {
        fill: #fff;
      }
    </style>
  </defs>
  <g>
    <rect class="cls-1" x="28.91" y="101.68" width="25.67" height="25.67" rx="8.28"/>
    <path class="cls-1" d="M-169.17,86.49A7.67,7.67,0,0,0-169,91c1,2.25,3.29,2.19,11.72,2.26,7.34.07,9.58.16,10.95-2.2a9.06,9.06,0,0,0,1-4.56,13.44,13.44,0,0,1,.2-4.2c1.36-6.28,7-7.78,13.95-12.79,4.5-3.26,9.69-7,13.31-14A40,40,0,0,0-113.82,34c-.27-2.67-1.78-14.64-11.57-23.85C-136.43-.27-150.48-.09-158.58,0-176.19.24-189.14,8.07-195,12.22c-.78,1.73-8.06,18.46-2.25,35.72a34.46,34.46,0,0,0,10.59,15.87,44.54,44.54,0,0,1,1.38-13.17c4.32-16.26,17.68-24.92,28.55-25.19.95,0,13.6-.17,15.81,7.75a11.43,11.43,0,0,1,0,5.29c-2.29,11.64-14.84,11.62-22.31,23.06C-165.92,65.64-169.08,73-169.17,86.49Z" transform="translate(199.5 0.01)"/>
  </g>
</svg>
