<svg id="Ebene_1" data-name="Ebene 1" xmlns="http://www.w3.org/2000/svg" viewBox="0 0 85.85 109.21"><defs><style>.cls-1{fill:#fff;}</style></defs><path class="cls-1" d="M62.34,70.66,21.23,76.27c-1.92.2-3.31,0-4.17-.76a6.2,6.2,0,0,1-1.74-3.94l-3.18-20a5.26,5.26,0,0,1,.83-4.4,6.07,6.07,0,0,1,4.17-1.82l30.18-4.25a4.92,4.92,0,0,0,3.19-1.37,5,5,0,0,0,.91-3.33,4.37,4.37,0,0,0-1.06-3.19,4.15,4.15,0,0,0-3-1.06H5.46a5.72,5.72,0,0,1-4.17-1.29A5.72,5.72,0,0,1,0,26.67V8.32A5.72,5.72,0,0,1,1.29,4.15,5.72,5.72,0,0,1,5.46,2.86h49q14.72,0,23.06,6.9t8.34,19.79V45.48q0,12.74-6.37,18.2T62.34,70.66Zm-17,41.41H17.59a5.72,5.72,0,0,1-4.17-1.29,5.73,5.73,0,0,1-1.28-4.18V86.74a5.75,5.75,0,0,1,1.28-4.18,5.77,5.77,0,0,1,4.17-1.28H45.35a5.77,5.77,0,0,1,4.17,1.28,5.75,5.75,0,0,1,1.29,4.18V106.6a5.73,5.73,0,0,1-1.29,4.18A5.72,5.72,0,0,1,45.35,112.07Z" transform="translate(0 -2.86)"/></svg>