<svg id="Ebene_1" data-name="Ebene 1" xmlns="http://www.w3.org/2000/svg" viewBox="0 0 49.97 50"><defs><style>.cls-1{fill:#fff;}</style></defs><path class="cls-1" d="M49,26a1.14,1.14,0,0,0,.87-.44A1.25,1.25,0,0,0,49.4,24C37.57,11.34,28.8,2.23,27.19.9A3.55,3.55,0,0,0,25,0a3.16,3.16,0,0,0-2.18.9L.18,24a1.46,1.46,0,0,0-.09,1.19A1.43,1.43,0,0,0,.93,26q11.77.15,23.78.17Q37,26.16,49,26Z" transform="translate(0)"/><path class="cls-1" d="M38.75,19.65H11.25A3.84,3.84,0,0,0,7.4,23.48h0V46.16A3.84,3.84,0,0,0,11.24,50h7.29V38.67a3.82,3.82,0,0,1,3.82-3.84h5.28a3.82,3.82,0,0,1,3.84,3.82V50h7.28a3.84,3.84,0,0,0,3.85-3.83h0V23.49a3.84,3.84,0,0,0-3.84-3.84Z" transform="translate(0)"/></svg>