<svg id="Ebene_1" data-name="Ebene 1" xmlns="http://www.w3.org/2000/svg" viewBox="0 0 49.98 50"><defs><style>.cls-1{fill:#1d1d1b;}</style></defs><path class="cls-1" d="M49,26a1.14,1.14,0,0,0,.87-.44A1.25,1.25,0,0,0,49.4,24C37.57,11.34,28.8,2.23,27.19.9A3.53,3.53,0,0,0,25,0a3.16,3.16,0,0,0-2.18.9L.18,24a1.45,1.45,0,0,0-.09,1.19A1.44,1.44,0,0,0,.93,26q11.77.15,23.78.17Q37,26.16,49,26Z" transform="translate(0)"/><path class="cls-1" d="M38.75,19.65H11.25A3.84,3.84,0,0,0,7.4,23.49V46.16A3.84,3.84,0,0,0,11.25,50h7.28V38.67a3.83,3.83,0,0,1,3.84-3.84h5.26a3.83,3.83,0,0,1,3.84,3.84V50h7.28a3.84,3.84,0,0,0,3.85-3.84V23.49A3.84,3.84,0,0,0,38.75,19.65Z" transform="translate(0)"/></svg>