<svg id="Ebene_1" data-name="Ebene 1" xmlns="http://www.w3.org/2000/svg" viewBox="0 0 50 47.84"><defs><style>.cls-1{fill:#fff;}</style></defs><path class="cls-1" d="M-52.32,30.22a16.64,16.64,0,0,1-23.34,0A13.34,13.34,0,0,0-89,43.54v3.12h50V43.54A13.33,13.33,0,0,0-52.32,30.22Z" transform="translate(88.99 1.18)"/><path class="cls-1" d="M-80,13.26a15.93,15.93,0,0,0-.09,1.61A16.09,16.09,0,0,0-64,31,16.09,16.09,0,0,0-47.88,14.87,16.1,16.1,0,0,0-48,13.26Z" transform="translate(88.99 1.18)"/><path class="cls-1" d="M-49.62,6.94V-.16a9.51,9.51,0,0,1-7.09,3.43A9.53,9.53,0,0,1-64-.19a9.84,9.84,0,0,1-8,3.43,9.53,9.53,0,0,1-6.32-3.4v7.1Z" transform="translate(88.99 1.18)"/><path class="cls-1" d="M-49.69,7.84V7.78H-78.4v.06a17.06,17.06,0,0,0-1.31,3.67H-48.4A17.37,17.37,0,0,0-49.69,7.84Z" transform="translate(88.99 1.18)"/><circle class="cls-1" cx="24.99" cy="0.83" r="0.83"/><circle class="cls-1" cx="39.12" cy="0.84" r="0.83"/><circle class="cls-1" cx="10.93" cy="0.85" r="0.83"/></svg>