<svg id="Ebene_1" data-name="Ebene 1" xmlns="http://www.w3.org/2000/svg" viewBox="0 0 104.66 103.19"><defs><style>.cls-1{fill:#fff;}</style></defs><circle class="cls-1" cx="52.48" cy="91.44" r="11.75"/><path class="cls-1" d="M-106.08,62.49l-9.07-12.2a29.25,29.25,0,0,1,20.53-9.81c13-.43,21,8.27,22.15,9.51l-9.1,12.42c-1-1.2-5.66-6.52-12.7-6.27C-100.76,56.37-105,61.18-106.08,62.49Z" transform="translate(146.29 13.15)"/><path class="cls-1" d="M-120.28,43.17l-10-13C-128,27.8-115.17,14.8-94.42,14.6c21.28-.22,34.61,13.17,36.81,15.47l-10,12.33A39.26,39.26,0,0,0-94,32.39,39.28,39.28,0,0,0-120.28,43.17Z" transform="translate(146.29 13.15)"/><path class="cls-1" d="M-135.37,23.39-146.29,9.84c3-3.29,21.41-22.69,51.44-23,31.16-.31,50.34,20.21,53.22,23.4l-10,12.54c-2.44-2.57-18.21-18.6-43.2-17.9C-118.4,5.55-132.81,20.62-135.37,23.39Z" transform="translate(146.29 13.15)"/></svg>