<svg id="Ebene_1" data-name="Ebene 1" xmlns="http://www.w3.org/2000/svg" viewBox="0 0 76.76 76.96">
  <defs>
    <style>
      .cls-1 {
        fill: #fff;
      }
    </style>
  </defs>
  <g>
    <circle class="cls-1" cx="25.38" cy="70.16" r="6.8"/>
    <circle class="cls-1" cx="61.73" cy="70.16" r="6.8"/>
    <path class="cls-1" d="M76.45,9.53a3.91,3.91,0,0,0-3.62-2.88H21.58L20.49-.16h1a4.39,4.39,0,0,0,3.48-5A4.25,4.25,0,0,0,21.49-9h-18A4.39,4.39,0,0,0,0-4,4.25,4.25,0,0,0,3.51-.16h8.92L19.65,45a4.59,4.59,0,0,0,.63,1.7A3.44,3.44,0,0,0,23.41,49h41a3.77,3.77,0,0,0,2.85-2.77l9.32-33.87A4.3,4.3,0,0,0,76.45,9.53Z" transform="translate(0 9.02)"/>
  </g>
</svg>
